<svg xmlns="http://www.w3.org/2000/svg" viewBox="0 0 1200 700">
<defs><linearGradient id="g" x1="0" y1="0" x2="1" y2="1"><stop stop-color="#071b5b"/><stop offset=".55" stop-color="#6333c7"/><stop offset="1" stop-color="#ff5b9f"/></linearGradient><radialGradient id="r"><stop stop-color="#53e7ff" stop-opacity=".9"/><stop offset="1" stop-color="#53e7ff" stop-opacity="0"/></radialGradient></defs>
<rect width="1200" height="700" rx="42" fill="url(#g)"/><circle cx="170" cy="150" r="180" fill="url(#r)"/><circle cx="1050" cy="90" r="130" fill="#fff" opacity=".08"/><path d="M0 560 Q250 430 500 570 T1200 540V700H0Z" fill="#07113d" opacity=".7"/>
<g font-family="Arial, sans-serif" text-anchor="middle"><text x="600" y="105" fill="#ffe96b" font-size="40" font-weight="900">MISSION 1</text><text x="600" y="210" fill="white" stroke="#35139e" stroke-width="12" paint-order="stroke" font-size="92" font-weight="900">CONVERSATIONS</text><text x="600" y="270" fill="#e9f8ff" font-size="32" font-weight="700">Speak, choose and build real dialogues</text></g>
<g transform="translate(105 320)"><rect width="420" height="210" rx="42" fill="#fff" opacity=".96"/><path d="M120 210l-42 66 92-48" fill="#fff"/><circle cx="95" cy="95" r="54" fill="#ffd1ad"/><path d="M48 85q45-75 100-8" fill="#222b50"/><circle cx="78" cy="98" r="7"/><circle cx="113" cy="98" r="7"/><path d="M77 126q20 20 40 0" fill="none" stroke="#c54e60" stroke-width="7" stroke-linecap="round"/><text x="245" y="90" font-family="Arial" font-size="31" font-weight="800" fill="#392788">Hello! How are you?</text><text x="245" y="140" font-family="Arial" font-size="24" font-weight="700" fill="#6e6e8c">Choose the best reply</text></g>
<g transform="translate(690 350)"><rect width="400" height="170" rx="40" fill="#21d8bb"/><path d="M305 170l55 64-105-55" fill="#21d8bb"/><text x="200" y="72" text-anchor="middle" font-family="Arial" font-size="34" font-weight="900" fill="#082757">I'm great, thank you!</text><text x="200" y="119" text-anchor="middle" font-family="Arial" font-size="23" font-weight="700" fill="#0a4f63">Tap • Listen • Respond</text></g>
<g transform="translate(420 590)"><rect width="360" height="46" rx="23" fill="#15084e" stroke="#fff" stroke-width="4"/><rect x="7" y="7" width="120" height="32" rx="16" fill="#ffe34d"/><text x="795" y="625" fill="white" font-family="Arial" font-size="27" font-weight="900">33%</text></g>
</svg>
