<svg xmlns="http://www.w3.org/2000/svg" viewBox="0 0 1200 700"><defs><linearGradient id="g" x1="0" y1="0" x2="1" y2="1"><stop stop-color="#19075c"/><stop offset=".5" stop-color="#8b1ab5"/><stop offset="1" stop-color="#ff8b18"/></linearGradient><radialGradient id="r"><stop stop-color="#ffe569"/><stop offset="1" stop-color="#ff9c00" stop-opacity="0"/></radialGradient></defs><rect width="1200" height="700" rx="42" fill="url(#g)"/><circle cx="600" cy="360" r="300" fill="url(#r)" opacity=".35"/><g fill="#fff5a6"><circle cx="100" cy="100" r="6"/><circle cx="220" cy="160" r="9"/><circle cx="990" cy="115" r="7"/><circle cx="1110" cy="230" r="5"/></g><text x="600" y="95" text-anchor="middle" font-family="Arial" font-size="41" font-weight="900" fill="#fff279">MISSION 3</text><text x="600" y="205" text-anchor="middle" font-family="Arial" font-size="94" font-weight="900" fill="#ffe452" stroke="#4b126e" stroke-width="14" paint-order="stroke">FINAL CHALLENGE</text><text x="600" y="265" text-anchor="middle" font-family="Arial" font-size="32" font-weight="800" fill="white">Become an English World Champion</text>
<g transform="translate(120 335)"><rect width="270" height="190" rx="32" fill="#122d83" stroke="#5ceeff" stroke-width="7"/><text x="135" y="62" text-anchor="middle" font-family="Arial" font-size="54">💬</text><text x="135" y="112" text-anchor="middle" font-family="Arial" font-size="25" font-weight="900" fill="white">DIALOGUE PORTAL</text><text x="135" y="150" text-anchor="middle" font-family="Arial" font-size="19" fill="#bdefff">Choose the reply</text></g><g transform="translate(465 335)"><rect width="270" height="190" rx="32" fill="#0b6b61" stroke="#8dffd8" stroke-width="7"/><text x="135" y="62" text-anchor="middle" font-family="Arial" font-size="54">🎧</text><text x="135" y="112" text-anchor="middle" font-family="Arial" font-size="25" font-weight="900" fill="white">STORY TEMPLE</text><text x="135" y="150" text-anchor="middle" font-family="Arial" font-size="19" fill="#d0fff0">Read and listen</text></g><g transform="translate(810 335)"><rect width="270" height="190" rx="32" fill="#8a3c00" stroke="#ffe375" stroke-width="7"/><text x="135" y="62" text-anchor="middle" font-family="Arial" font-size="54">🏆</text><text x="135" y="112" text-anchor="middle" font-family="Arial" font-size="25" font-weight="900" fill="white">CHAMPION VAULT</text><text x="135" y="150" text-anchor="middle" font-family="Arial" font-size="19" fill="#fff0bd">Win your diploma</text></g><rect x="355" y="610" width="490" height="45" rx="22" fill="#210747" stroke="#fff" stroke-width="4"/><rect x="363" y="618" width="464" height="29" rx="14" fill="#ffe04d"/><text x="875" y="645" font-family="Arial" font-size="27" font-weight="900" fill="white">100%</text></svg>
