<svg xmlns="http://www.w3.org/2000/svg" viewBox="0 0 1200 700"><defs><linearGradient id="g" x1="0" x2="1" y2="1"><stop stop-color="#073f76"/><stop offset=".5" stop-color="#0fb5aa"/><stop offset="1" stop-color="#f0b13d"/></linearGradient></defs><rect width="1200" height="700" rx="42" fill="url(#g)"/><circle cx="190" cy="110" r="115" fill="#fff" opacity=".12"/><circle cx="1020" cy="570" r="180" fill="#fff" opacity=".08"/><text x="600" y="95" text-anchor="middle" font-family="Arial" font-size="40" font-weight="900" fill="#fff278">MISSION 2</text><text x="600" y="190" text-anchor="middle" font-family="Arial" font-size="82" font-weight="900" fill="white" stroke="#075079" stroke-width="12" paint-order="stroke">READING &amp; LISTENING</text><text x="600" y="245" text-anchor="middle" font-family="Arial" font-size="31" font-weight="700" fill="#eaffff">Discover stories with your eyes and ears</text>
<g transform="translate(95 310)"><rect width="445" height="270" rx="35" fill="#fff7d7" stroke="#ffe16c" stroke-width="8"/><path d="M222 20v225" stroke="#d49b35" stroke-width="5"/><path d="M35 45q90-32 170 5v175q-80-30-170 0z" fill="#d9f6ff"/><path d="M240 50q90-37 170-5v180q-80-30-170 0z" fill="#fff"/><text x="119" y="100" text-anchor="middle" font-family="Arial" font-size="28" font-weight="900" fill="#175f99">THE LOST STAR</text><text x="120" y="145" text-anchor="middle" font-family="Arial" font-size="21" fill="#31546f">Read the clues</text><text x="325" y="102" text-anchor="middle" font-family="Arial" font-size="58">⭐</text><text x="325" y="165" text-anchor="middle" font-family="Arial" font-size="21" font-weight="700" fill="#6a4b21">Find the ending</text></g>
<g transform="translate(675 320)"><circle cx="170" cy="125" r="125" fill="#172b61" stroke="#73f7ff" stroke-width="10"/><path d="M145 80v90l80-45z" fill="#6ff4e2"/><path d="M45 125c0-85 48-145 125-145s125 60 125 145" fill="none" stroke="#fff" stroke-width="18"/><rect x="25" y="105" width="40" height="90" rx="18" fill="#ffca48"/><rect x="275" y="105" width="40" height="90" rx="18" fill="#ffca48"/><text x="170" y="290" text-anchor="middle" font-family="Arial" font-size="27" font-weight="900" fill="white">LISTEN AND CHOOSE</text></g>
<rect x="400" y="620" width="400" height="42" rx="21" fill="#09234f" stroke="white" stroke-width="4"/><rect x="407" y="627" width="245" height="28" rx="14" fill="#ffe259"/><text x="830" y="653" font-family="Arial" font-size="27" font-weight="900" fill="white">66%</text></svg>
