<svg xmlns="http://www.w3.org/2000/svg" width="1600" height="900" viewBox="0 0 1600 900"><defs><linearGradient id="n" x2="1" y2="1"><stop stop-color="#171139"/><stop offset=".52" stop-color="#63336d"/><stop offset="1" stop-color="#08727b"/></linearGradient><radialGradient id="g"><stop stop-color="#ffe899" stop-opacity=".85"/><stop offset="1" stop-color="#ffe899" stop-opacity="0"/></radialGradient><filter id="s"><feGaussianBlur stdDeviation="8"/></filter></defs><rect width="1600" height="900" fill="url(#n)"/><path d="M0 690Q310 570 650 690T1250 650T1600 680V900H0Z" fill="#120d2d"/><g opacity=".35" fill="#2b1749"><path d="M0 100h360v590H0zM1240 100h360v590h-360z"/><g fill="#b47764"><path d="M28 130h300v20H28zm0 150h300v20H28zm0 150h300v20H28zm0 150h300v20H28zm1244-450h300v20h-300zm0 150h300v20h-300zm0 150h300v20h-300zm0 150h300v20h-300z"/></g></g><ellipse cx="800" cy="420" rx="500" ry="360" fill="url(#g)"/><path d="M420 650Q590 550 790 650V290Q600 200 420 300Z" fill="#fff0c6" stroke="#e3bd68" stroke-width="18"/><path d="M1180 650Q1010 550 810 650V290Q1000 200 1180 300Z" fill="#ffebbb" stroke="#e3bd68" stroke-width="18"/><path d="M800 290v360" stroke="#9b754b" stroke-width="8"/><g font-family="Georgia" font-weight="900" text-anchor="middle"><text x="800" y="90" font-size="60" fill="#fff4c8">LA BIBLIOTECA VIVA</text><text x="800" y="165" font-size="78" fill="#ffd36d">COMUNICACIÓN Y LENGUAJE</text><text x="605" y="390" font-size="110" fill="#8d2f68">A B C</text><text x="995" y="400" font-size="92" fill="#087f8c">Érase una vez…</text><text x="605" y="500" font-size="48" fill="#442752">palabras</text><text x="995" y="505" font-size="48" fill="#442752">historias</text></g><g fill="#ffe681"><circle cx="390" cy="220" r="9"/><circle cx="1210" cy="230" r="7"/><circle cx="280" cy="430" r="6"/><circle cx="1330" cy="480" r="10"/></g><text x="740" y="740" font-size="110">🕊️</text></svg>
